{"title":"Killing Spree - S01E04 - The Miami Murders","uid":15884886,"size":1110493406,"categoryP":"video","categoryS":"tv_shows","magnet":"?xt=urn:btih:47b2929cf48309def9d2aa957dc5c0fdcdad6126&amp;dn=Killing+Spree+-+S01E04+-+The+Miami+Murders&amp;tr=udp%3A%2F%2Ftracker.leechers-paradise.org%3A6969&amp;tr=udp%3A%2F%2Fzer0day.ch%3A1337&amp;tr=udp%3A%2F%2Fopen.demonii.com%3A1337&amp;tr=udp%3A%2F%2Ftracker.coppersurfer.tk%3A6969&amp;tr=udp%3A%2F%2Fexodus.desync.com%3A6969","seeders":4,"leechers":2,"uploader":"Bullrout","files":1,"time":1474641699,"description":"Killing Spree - S01E04 - The Miami Murders\r\n\r\nDuring a three-month period in 1997, Andrew Cunanan murdered fashion designer Gianni Versace as well as another five people across three states- a killing spree that ended with his suicide. We draw on the testimonies' of eyewitness' to go inside the mind of this killer. \r\n\r\nComplete name                            : Killing Spree - S01E04 - The Miami Murders.mkv\r\nFormat                                   : Matroska\r\nFormat version                           : Version 4 / Version 2\r\nFile size                                : 1.03 GiB\r\nDuration                                 : 44 min 37 s\r\nOverall bit rate mode                    : Variable\r\nOverall bit rate                         : 3 318 kb/s\r\nEncoded date                             : UTC 2016-09-22 09:05:46\r\nWriting application                      : mkvmerge v9.4.2 ('So High') 64bit\r\nWriting library                          : libebml v1.3.4 + libmatroska v1.4.5\r\n\r\nVideo\r\nID                                       : 2\r\nFormat                                   : AVC\r\nFormat/Info                              : Advanced Video Codec\r\nFormat profile                           :   \r\nFormat settings, CABAC                   : Yes\r\nFormat settings, ReFrames                : 3 frames\r\nCodec ID                                 : V_MPEG4/ISO/AVC\r\nDuration                                 : 44 min 37 s\r\nBit rate mode                            : Variable\r\nBit rate                                 : 2 932 kb/s\r\nMaximum bit rate                         : 3 000 kb/s\r\nWidth                                    : 1 280 pixels\r\nHeight                                   : 720 pixels\r\nDisplay aspect ratio                     : 16:9\r\nFrame rate mode                          : Constant\r\nFrame rate                               : 25.000 FPS\r\nStandard                                 : PAL\r\nColor space                              : YUV\r\nChroma subsampling                       : 4:2:0\r\nBit depth                                : 8 bits\r\nScan type                                : Progressive\r\nBits/(Pixel*Frame)                       : 0.127\r\nStream size                              : 936 MiB (88%)\r\nWriting library                          : x264 core 112\r\nDefault                                  : Yes\r\nForced                                   : No\r\nColor range                              : Limited\r\nColor primaries                          : BT.709\r\nTransfer characteristics                 : BT.709\r\nMatrix coefficients                      : BT.709\r\n\r\nAudio\r\nID                                       : 1\r\nFormat                                   : AC-3\r\nFormat/Info                              : Audio Coding 3\r\nMode extension                           : CM (complete main)\r\nFormat settings, Endianness              : Big\r\nCodec ID                                 : A_AC3\r\nDuration                                 : 44 min 37 s\r\nBit rate mode                            : Constant\r\nBit rate                                 : 384 kb/s\r\nChannel(s)                               : 6 channels\r\nChannel positions                        : Front: L C R, Side: L R, LFE\r\nSampling rate                            : 48.0 kHz\r\nFrame rate                               : 31.250 FPS (1536 spf)\r\nCompression mode                         : Lossy\r\nStream size                              : 123 MiB (12%)\r\nDefault                                  : Yes\r\nForced                                   : No","torrent":{"xt":"urn:btih:47b2929cf48309def9d2aa957dc5c0fdcdad6126","amp;dn":"Killing+Spree+-+S01E04+-+The+Miami+Murders","amp;tr":["udp%3A%2F%2Ftracker.leechers-paradise.org%3A6969","udp%3A%2F%2Fzer0day.ch%3A1337","udp%3A%2F%2Fopen.demonii.com%3A1337","udp%3A%2F%2Ftracker.coppersurfer.tk%3A6969","udp%3A%2F%2Fexodus.desync.com%3A6969"],"infoHash":"47b2929cf48309def9d2aa957dc5c0fdcdad6126","infoHashBuffer":{"type":"Buffer","data":[71,178,146,156,244,131,9,222,249,210,170,149,125,197,192,253,205,173,97,38]},"announce":[],"urlList":[]}}